<svg xmlns="http://www.w3.org/2000/svg" viewBox="0 0 384 512"><defs><style>.cls-1{fill:#fff;}.cls-2{fill:#e75a24;}</style></defs><title>Ativo 2</title><g id="Camada_2" data-name="Camada 2"><g id="Layer_1" data-name="Layer 1"><path class="cls-1" d="M298.67,334.55c-1.11-2.34-5.58-3.88-21.34-3.88-1.25,0-3.47.16-6.48.5,8.3,5.64,15,9.6,17.92,10.23C298.67,341.33,298.67,339.34,298.67,334.55Z"/><path class="cls-1" d="M191.48,291.23c-3.18,9.6-6.74,20.27-10.7,32.15-.62,1.89-1.27,3.77-1.94,5.62,13.38-4.24,27.37-7.79,40.52-10.66-6.61-5.63-11.57-10.13-13.57-12.13Q198.13,298.53,191.48,291.23Z"/><path class="cls-1" d="M85.33,401.91c.45.55,4.58,3.42,10.67,3.42s21.9-10.77,37.92-34l-4.22,2C107.88,383.66,85.33,394.34,85.33,401.91Z"/><path class="cls-1" d="M192,213.33C192,192,188.88,192,181.33,192c-3.73,0-10.66,0-10.66,22.35,0,8.35,4.46,19.4,12.84,32.3C189,229.08,192,217.83,192,213.33Z"/><path class="cls-1" d="M347.58,106.67,277.33,36.42V85.33a21.37,21.37,0,0,0,21.34,21.34Z"/><path class="cls-1" d="M42.67,21.33A21.37,21.37,0,0,0,21.33,42.67V469.33a21.37,21.37,0,0,0,21.34,21.34H341.33a21.37,21.37,0,0,0,21.34-21.34V128h-64A42.71,42.71,0,0,1,256,85.33v-64Zm234.66,288c13.86,0,42.67,0,42.67,25.22,0,12.82-5.55,28.12-32,28.12-9.55,0-29.27-13.14-47.13-26.87-22.28,4.16-50.51,10.79-73.21,19.75-21.88,44.63-51.83,71.12-71.66,71.12-15.39,0-32-9.47-32-24.76,0-21.07,22.5-31.73,56.56-47.86,7.47-3.54,15.52-7.35,24-11.59,2.36-1.18,4.79-2.31,7.3-3.43q4.63-10.33,8.69-22.41c5.59-16.78,10.55-31.66,14.78-44.57-17.28-22.46-26-41.78-26-57.7,0-36.1,17.41-43.68,32-43.68,19.21,0,32,7.26,32,42.66,0,8.34-4.3,24-14.11,54.29,6.29,7.5,13.53,15.38,21.65,23.5a309.7,309.7,0,0,0,25.51,22C261.49,310.6,273,309.33,277.33,309.33Z"/><path class="cls-2" d="M380.88,109.79,274.21,3.12A10.66,10.66,0,0,0,266.67,0h-224A42.72,42.72,0,0,0,0,42.67V469.33A42.72,42.72,0,0,0,42.67,512H341.33A42.72,42.72,0,0,0,384,469.33v-352A10.66,10.66,0,0,0,380.88,109.79ZM277.33,36.42l70.25,70.25H298.67a21.37,21.37,0,0,1-21.34-21.34Zm85.34,432.91a21.37,21.37,0,0,1-21.34,21.34H42.67a21.37,21.37,0,0,1-21.34-21.34V42.67A21.37,21.37,0,0,1,42.67,21.33H256v64A42.72,42.72,0,0,0,298.67,128h64Z"/><path class="cls-2" d="M246.39,313.14a306.39,306.39,0,0,1-25.51-22c-8.13-8.12-15.37-16-21.66-23.5,9.81-30.32,14.11-46,14.11-54.29,0-35.4-12.79-42.66-32-42.66-14.59,0-32,7.58-32,43.68,0,15.92,8.72,35.24,26,57.7-4.23,12.91-9.19,27.79-14.78,44.58q-4,12.08-8.69,22.4c-2.51,1.12-4.94,2.25-7.3,3.43-8.48,4.24-16.53,8.05-24,11.59C86.5,370.18,64,380.84,64,401.91c0,15.29,16.62,24.76,32,24.76,19.83,0,49.78-26.49,71.66-71.12,22.7-9,50.93-15.59,73.22-19.75,17.85,13.73,37.57,26.87,47.12,26.87,26.45,0,32-15.3,32-28.12,0-25.22-28.81-25.22-42.67-25.22C273,309.33,261.49,310.6,246.39,313.14ZM96,405.33c-6.09,0-10.22-2.87-10.67-3.42,0-7.57,22.56-18.25,44.37-28.59l4.22-2C117.9,394.56,102.05,405.33,96,405.33Zm74.67-191c0-22.35,6.94-22.35,10.66-22.35,7.55,0,10.67,0,10.67,21.33,0,4.5-3,15.75-8.49,33.32C175.13,233.75,170.67,222.7,170.67,214.35ZM178.84,329c.67-1.85,1.32-3.73,1.94-5.62,4-11.88,7.52-22.55,10.7-32.15q6.65,7.31,14.31,15c2,2,7,6.5,13.57,12.13C206.21,321.21,192.22,324.76,178.84,329Zm119.83,5.55c0,4.79,0,6.78-9.9,6.85-2.91-.63-9.62-4.59-17.92-10.23,3-.34,5.23-.5,6.48-.5C293.09,330.67,297.56,332.21,298.67,334.55Z"/></g></g></svg>